#N canvas 319 160 774 599 10;
#X obj 103 332 line~;
#X obj 32 348 *~;
#X obj 32 138 mtof;
#X obj 32 180 line~;
#N canvas 0 22 214 283 oscDrift 0;
#X msg 37 200 \$1 \$2;
#X obj 37 179 pack f f;
#X obj 98 156 t f f;
#X obj 114 179 del;
#X obj 37 54 t b b b;
#X obj 98 116 * 77;
#X obj 37 95 / 33;
#X obj 37 115 - 1.5;
#X obj 37 220 line~;
#X obj 37 33 loadbang;
#X obj 98 136 + 33;
#X obj 37 240 outlet~;
#X obj 37 75 random 100;
#X obj 98 96 random 100;
#X connect 0 0 8 0;
#X connect 1 0 0 0;
#X connect 2 0 1 1;
#X connect 2 1 3 1;
#X connect 3 0 4 0;
#X connect 4 0 12 0;
#X connect 4 1 3 0;
#X connect 4 2 13 0;
#X connect 5 0 10 0;
#X connect 6 0 7 0;
#X connect 7 0 1 0;
#X connect 8 0 11 0;
#X connect 9 0 4 0;
#X connect 10 0 2 0;
#X connect 12 0 6 0;
#X connect 13 0 5 0;
#X restore 101 185 pd oscDrift;
#X obj 32 201 +~;
#X obj 32 222 *~;
#X obj 32 159 pack \$1 44;
#X obj 191 184 *~;
#X obj 32 108 t f f;
#X obj 261 126 r FM @hv_param 0 1 0;
#X obj 103 290 r amp @hv_param 0 1 0.5;
#X obj 103 311 pack \$1 200;
#X obj 261 147 pack \$1 10;
#X obj 261 168 line~;
#X obj 191 160 osc~;
#X obj 32 243 osc~;
#X obj 404 229 *~;
#X obj 545 144 * 1500;
#X obj 404 160 f;
#X obj 404 205 line~;
#X obj 404 250 *~;
#X obj 32 264 *~;
#X msg 404 183 1 \, 0 \$1;
#X obj 545 123 r decay @hv_param 0 1 1;
#X obj 404 139 r trigger @hv_event;
#X obj 32 87 + 60;
#X obj 32 56 r note @hv_param 1 36 1;
#X obj 53 535 dac~ 1;
#X connect 0 0 1 1;
#X connect 1 0 28 0;
#X connect 2 0 7 0;
#X connect 3 0 5 0;
#X connect 4 0 5 1;
#X connect 5 0 6 0;
#X connect 6 0 16 0;
#X connect 7 0 3 0;
#X connect 8 0 6 1;
#X connect 9 0 2 0;
#X connect 9 1 15 0;
#X connect 10 0 13 0;
#X connect 11 0 12 0;
#X connect 12 0 0 0;
#X connect 13 0 14 0;
#X connect 14 0 8 1;
#X connect 15 0 8 0;
#X connect 16 0 22 0;
#X connect 17 0 21 0;
#X connect 17 0 21 1;
#X connect 18 0 19 1;
#X connect 19 0 23 0;
#X connect 20 0 17 0;
#X connect 20 0 17 1;
#X connect 21 0 22 1;
#X connect 22 0 1 0;
#X connect 23 0 20 0;
#X connect 24 0 18 0;
#X connect 25 0 19 0;
#X connect 26 0 9 0;
#X connect 27 0 26 0;
