#N canvas 575 275 584 453 10;
#X obj 49 48 inlet~;
#X obj 203 221 cos~;
#X obj 203 301 *~ 0.8;
#X obj 393 226 +~ 0.5;
#X obj 393 246 wrap~;
#X obj 393 266 cos~;
#X obj 393 286 *~ 2;
#X obj 393 346 *~ 0.8;
#X obj 34 409 outlet~;
#X obj 119 407 outlet~;
#X obj 34 295 +~;
#X obj 119 317 +~;
#X obj 203 183 osc~;
#X obj 351 124 / 10;
#X obj 351 168 t f f f f;
#X obj 435 124 / 100;
#X obj 435 146 - 0.5;
#X obj 320 25 inlet;
#X obj 320 47 markovChain;
#X obj 435 52 t b b b;
#X obj 268 128 / 1000;
#X obj 435 168 * 1.5;
#X obj 351 146 + 3;
#X obj 203 281 vd~ \$0-phase1;
#X obj 393 326 vd~ \$0-phase2;
#X obj 104 68 delwrite~ \$0-phase1 400;
#X obj 88 87 delwrite~ \$0-phase2 400;
#X obj 203 241 *~ 2;
#X obj 203 261 +~ 2;
#X obj 393 306 +~ 2;
#X obj 435 29 loadbang;
#X obj 75 232 *~ 0.5;
#X obj 34 323 *~ 0.5;
#X obj 119 341 *~ 0.5;
#X obj 119 363 +~;
#X obj 34 345 +~;
#X obj 268 104 random 30;
#X obj 352 101 random 70;
#X obj 435 102 random 100;
#X connect 0 0 10 0;
#X connect 0 0 11 0;
#X connect 0 0 25 0;
#X connect 0 0 26 0;
#X connect 0 0 31 0;
#X connect 1 0 27 0;
#X connect 2 0 10 1;
#X connect 2 0 25 0;
#X connect 3 0 4 0;
#X connect 4 0 5 0;
#X connect 5 0 6 0;
#X connect 6 0 29 0;
#X connect 7 0 11 1;
#X connect 7 0 26 0;
#X connect 10 0 32 0;
#X connect 11 0 33 0;
#X connect 12 0 1 0;
#X connect 12 0 3 0;
#X connect 13 0 22 0;
#X connect 14 0 27 1;
#X connect 14 1 28 1;
#X connect 14 2 6 1;
#X connect 14 3 29 1;
#X connect 15 0 16 0;
#X connect 16 0 21 0;
#X connect 17 0 18 0;
#X connect 18 0 36 0;
#X connect 18 1 37 0;
#X connect 18 2 38 0;
#X connect 18 3 19 0;
#X connect 19 0 36 0;
#X connect 19 1 37 0;
#X connect 19 2 38 0;
#X connect 20 0 12 0;
#X connect 21 0 2 1;
#X connect 21 0 7 1;
#X connect 22 0 14 0;
#X connect 23 0 2 0;
#X connect 24 0 7 0;
#X connect 27 0 28 0;
#X connect 28 0 23 0;
#X connect 29 0 24 0;
#X connect 30 0 19 0;
#X connect 31 0 35 1;
#X connect 31 0 34 1;
#X connect 32 0 35 0;
#X connect 33 0 34 0;
#X connect 34 0 9 0;
#X connect 35 0 8 0;
#X connect 36 0 20 0;
#X connect 37 0 13 0;
#X connect 38 0 15 0;
